<svg xmlns="http://www.w3.org/2000/svg" fill="none" viewBox="0 0 36 31" height="31" width="36">
<path fill="#B2D4CE" d="M36 17.4428C36 13.813 33.1108 10.873 29.5486 10.873H24.2791V15.5704H29.5486C30.5663 15.5704 31.3871 16.408 31.3871 17.4428V18.4611H36V17.4428ZM28.5964 6.20845C28.5964 2.77574 25.855 0 22.4897 0H17.5157V4.43461H22.4897C23.4583 4.43461 24.2298 5.22298 24.2298 6.20845V7.16107H28.58V6.20845H28.5964ZM26.1505 29.1042C26.1505 24.0783 22.1286 19.9722 17.1874 19.9722H9.88235V26.4927H17.1874C18.5992 26.4927 19.7483 27.6588 19.7483 29.1042V30.5167H26.1505V29.1042ZM16.2681 15.5211H9.86594V14.1086C9.86594 12.6633 8.71682 11.4971 7.30506 11.4971H0V4.97662H7.30506C12.2462 4.97662 16.2681 9.06631 16.2681 14.1086V15.5211Z"></path>
</svg>
